<mxfile host="app.diagrams.net" agent="Mozilla/5.0 (Macintosh; Intel Mac OS X 10_15_7) AppleWebKit/537.36 (KHTML, like Gecko) Chrome/138.0.0.0 Safari/537.36" version="28.0.3">
  <diagram name="Page-1" id="H0FPP9yB2TcE8OysXJom">
    <mxGraphModel dx="788" dy="517" grid="1" gridSize="10" guides="1" tooltips="1" connect="1" arrows="1" fold="1" page="1" pageScale="1" pageWidth="850" pageHeight="1100" math="0" shadow="0">
      <root>
        <mxCell id="0" />
        <mxCell id="1" parent="0" />
        <mxCell id="eF3RlzpkJKs2DcJVRqGR-3" value="VERCEL HOSTING&lt;div&gt;&lt;br&gt;&lt;/div&gt;" style="rounded=1;whiteSpace=wrap;html=1;fillColor=none;verticalAlign=bottom;" vertex="1" parent="1">
          <mxGeometry x="320" y="240" width="160" height="160" as="geometry" />
        </mxCell>
        <mxCell id="eF3RlzpkJKs2DcJVRqGR-23" style="edgeStyle=orthogonalEdgeStyle;rounded=0;orthogonalLoop=1;jettySize=auto;html=1;" edge="1" parent="1" source="eF3RlzpkJKs2DcJVRqGR-1" target="eF3RlzpkJKs2DcJVRqGR-22">
          <mxGeometry relative="1" as="geometry">
            <Array as="points">
              <mxPoint x="240" y="290" />
            </Array>
          </mxGeometry>
        </mxCell>
        <mxCell id="eF3RlzpkJKs2DcJVRqGR-24" value="Order Delivery" style="edgeLabel;html=1;align=center;verticalAlign=middle;resizable=0;points=[];" vertex="1" connectable="0" parent="eF3RlzpkJKs2DcJVRqGR-23">
          <mxGeometry x="0.1077" y="2" relative="1" as="geometry">
            <mxPoint x="-12" y="-22" as="offset" />
          </mxGeometry>
        </mxCell>
        <mxCell id="eF3RlzpkJKs2DcJVRqGR-1" value="FRONT END WEBSITE" style="rounded=1;whiteSpace=wrap;html=1;" vertex="1" parent="1">
          <mxGeometry x="340" y="260" width="120" height="60" as="geometry" />
        </mxCell>
        <mxCell id="eF3RlzpkJKs2DcJVRqGR-8" style="edgeStyle=orthogonalEdgeStyle;rounded=0;orthogonalLoop=1;jettySize=auto;html=1;" edge="1" parent="1" source="eF3RlzpkJKs2DcJVRqGR-4" target="eF3RlzpkJKs2DcJVRqGR-1">
          <mxGeometry relative="1" as="geometry">
            <mxPoint x="360" y="160" as="targetPoint" />
            <Array as="points">
              <mxPoint x="400" y="150" />
            </Array>
          </mxGeometry>
        </mxCell>
        <mxCell id="eF3RlzpkJKs2DcJVRqGR-9" value="Browse Menu" style="edgeLabel;html=1;align=center;verticalAlign=middle;resizable=0;points=[];" vertex="1" connectable="0" parent="eF3RlzpkJKs2DcJVRqGR-8">
          <mxGeometry x="-0.0471" y="1" relative="1" as="geometry">
            <mxPoint x="-1" y="-13" as="offset" />
          </mxGeometry>
        </mxCell>
        <mxCell id="eF3RlzpkJKs2DcJVRqGR-10" style="edgeStyle=orthogonalEdgeStyle;rounded=0;orthogonalLoop=1;jettySize=auto;html=1;" edge="1" parent="1" source="eF3RlzpkJKs2DcJVRqGR-4" target="eF3RlzpkJKs2DcJVRqGR-5">
          <mxGeometry relative="1" as="geometry" />
        </mxCell>
        <mxCell id="eF3RlzpkJKs2DcJVRqGR-11" value="Order food" style="edgeLabel;html=1;align=center;verticalAlign=middle;resizable=0;points=[];" vertex="1" connectable="0" parent="eF3RlzpkJKs2DcJVRqGR-10">
          <mxGeometry x="-0.0095" y="3" relative="1" as="geometry">
            <mxPoint as="offset" />
          </mxGeometry>
        </mxCell>
        <mxCell id="eF3RlzpkJKs2DcJVRqGR-29" style="edgeStyle=orthogonalEdgeStyle;rounded=0;orthogonalLoop=1;jettySize=auto;html=1;entryX=0;entryY=0.5;entryDx=0;entryDy=0;dashed=1;dashPattern=8 8;strokeColor=#FF3333;" edge="1" parent="1" source="eF3RlzpkJKs2DcJVRqGR-4" target="eF3RlzpkJKs2DcJVRqGR-25">
          <mxGeometry relative="1" as="geometry">
            <Array as="points">
              <mxPoint x="320" y="100" />
              <mxPoint x="320" y="30" />
            </Array>
          </mxGeometry>
        </mxCell>
        <mxCell id="eF3RlzpkJKs2DcJVRqGR-4" value="Customer" style="ellipse;whiteSpace=wrap;html=1;aspect=fixed;" vertex="1" parent="1">
          <mxGeometry x="360" y="90" width="80" height="80" as="geometry" />
        </mxCell>
        <mxCell id="eF3RlzpkJKs2DcJVRqGR-12" style="edgeStyle=orthogonalEdgeStyle;rounded=0;orthogonalLoop=1;jettySize=auto;html=1;" edge="1" parent="1" source="eF3RlzpkJKs2DcJVRqGR-5" target="eF3RlzpkJKs2DcJVRqGR-6">
          <mxGeometry relative="1" as="geometry">
            <Array as="points">
              <mxPoint x="720" y="130" />
              <mxPoint x="720" y="280" />
            </Array>
          </mxGeometry>
        </mxCell>
        <mxCell id="eF3RlzpkJKs2DcJVRqGR-13" value="Issue Food&lt;br&gt;Ticket to Kitchen" style="edgeLabel;html=1;align=center;verticalAlign=middle;resizable=0;points=[];" vertex="1" connectable="0" parent="eF3RlzpkJKs2DcJVRqGR-12">
          <mxGeometry x="-0.3333" y="2" relative="1" as="geometry">
            <mxPoint x="1" y="20" as="offset" />
          </mxGeometry>
        </mxCell>
        <mxCell id="eF3RlzpkJKs2DcJVRqGR-17" style="edgeStyle=orthogonalEdgeStyle;rounded=0;orthogonalLoop=1;jettySize=auto;html=1;" edge="1" parent="1" source="eF3RlzpkJKs2DcJVRqGR-5" target="eF3RlzpkJKs2DcJVRqGR-4">
          <mxGeometry relative="1" as="geometry">
            <Array as="points">
              <mxPoint x="520" y="160" />
              <mxPoint x="520" y="160" />
            </Array>
          </mxGeometry>
        </mxCell>
        <mxCell id="eF3RlzpkJKs2DcJVRqGR-18" value="Payment" style="edgeLabel;html=1;align=center;verticalAlign=middle;resizable=0;points=[];" vertex="1" connectable="0" parent="eF3RlzpkJKs2DcJVRqGR-17">
          <mxGeometry x="0.0107" y="2" relative="1" as="geometry">
            <mxPoint as="offset" />
          </mxGeometry>
        </mxCell>
        <mxCell id="eF3RlzpkJKs2DcJVRqGR-5" value="Restaurant Staff" style="ellipse;whiteSpace=wrap;html=1;aspect=fixed;" vertex="1" parent="1">
          <mxGeometry x="600" y="90" width="80" height="80" as="geometry" />
        </mxCell>
        <mxCell id="eF3RlzpkJKs2DcJVRqGR-15" style="edgeStyle=orthogonalEdgeStyle;rounded=0;orthogonalLoop=1;jettySize=auto;html=1;" edge="1" parent="1" source="eF3RlzpkJKs2DcJVRqGR-6" target="eF3RlzpkJKs2DcJVRqGR-5">
          <mxGeometry relative="1" as="geometry">
            <Array as="points">
              <mxPoint x="640" y="230" />
              <mxPoint x="640" y="230" />
            </Array>
          </mxGeometry>
        </mxCell>
        <mxCell id="eF3RlzpkJKs2DcJVRqGR-16" value="Customer Bill" style="edgeLabel;html=1;align=center;verticalAlign=middle;resizable=0;points=[];" vertex="1" connectable="0" parent="eF3RlzpkJKs2DcJVRqGR-15">
          <mxGeometry y="-1" relative="1" as="geometry">
            <mxPoint as="offset" />
          </mxGeometry>
        </mxCell>
        <mxCell id="eF3RlzpkJKs2DcJVRqGR-6" value="TOAST" style="rounded=1;whiteSpace=wrap;html=1;" vertex="1" parent="1">
          <mxGeometry x="580" y="250" width="120" height="60" as="geometry" />
        </mxCell>
        <mxCell id="eF3RlzpkJKs2DcJVRqGR-27" style="edgeStyle=orthogonalEdgeStyle;rounded=0;orthogonalLoop=1;jettySize=auto;html=1;entryX=0;entryY=0.5;entryDx=0;entryDy=0;" edge="1" parent="1" source="eF3RlzpkJKs2DcJVRqGR-22" target="eF3RlzpkJKs2DcJVRqGR-4">
          <mxGeometry relative="1" as="geometry">
            <Array as="points">
              <mxPoint x="240" y="130" />
            </Array>
          </mxGeometry>
        </mxCell>
        <mxCell id="eF3RlzpkJKs2DcJVRqGR-28" value="Deliver Food" style="edgeLabel;html=1;align=center;verticalAlign=middle;resizable=0;points=[];" vertex="1" connectable="0" parent="eF3RlzpkJKs2DcJVRqGR-27">
          <mxGeometry x="-0.1647" y="-2" relative="1" as="geometry">
            <mxPoint x="-16" y="18" as="offset" />
          </mxGeometry>
        </mxCell>
        <mxCell id="eF3RlzpkJKs2DcJVRqGR-22" value="UberEat&lt;br&gt;DoorDash&lt;br&gt;GrubHub" style="rounded=1;whiteSpace=wrap;html=1;" vertex="1" parent="1">
          <mxGeometry x="200" y="180" width="90" height="60" as="geometry" />
        </mxCell>
        <mxCell id="eF3RlzpkJKs2DcJVRqGR-31" style="edgeStyle=orthogonalEdgeStyle;rounded=0;orthogonalLoop=1;jettySize=auto;html=1;dashed=1;dashPattern=8 8;strokeColor=#FF3333;" edge="1" parent="1" source="eF3RlzpkJKs2DcJVRqGR-25" target="eF3RlzpkJKs2DcJVRqGR-5">
          <mxGeometry relative="1" as="geometry">
            <Array as="points">
              <mxPoint x="730" y="30" />
              <mxPoint x="730" y="100" />
            </Array>
          </mxGeometry>
        </mxCell>
        <mxCell id="eF3RlzpkJKs2DcJVRqGR-25" value="&lt;div&gt;&lt;font style=&quot;color: rgb(255, 51, 51);&quot;&gt;&lt;b&gt;RESERVATION&lt;/b&gt;&lt;/font&gt;&lt;/div&gt;" style="rounded=1;whiteSpace=wrap;html=1;fillColor=none;verticalAlign=middle;dashed=1;dashPattern=8 8;strokeColor=#FF3333;" vertex="1" parent="1">
          <mxGeometry x="340" width="370" height="60" as="geometry" />
        </mxCell>
      </root>
    </mxGraphModel>
  </diagram>
</mxfile>
